<?xml version="1.0" encoding="UTF-8"?>
<svg xmlns="http://www.w3.org/2000/svg" viewBox="0 0 220 220">
  <defs>
    <style>
      .uuid-7302523b-913d-417c-86a8-cad070b9604e {
        fill: #3a2f34;
      }

      .uuid-7302523b-913d-417c-86a8-cad070b9604e, .uuid-8ec1893c-cc62-4a88-815d-7edd7e9247d5 {
        stroke-width: 0px;
      }

      .uuid-8ec1893c-cc62-4a88-815d-7edd7e9247d5 {
        fill: #fff;
      }
    </style>
  </defs>
  <g id="uuid-bcbec587-69c1-4731-97ac-5c3704bc3a65" data-name="BACKGROUND">
    <rect class="uuid-8ec1893c-cc62-4a88-815d-7edd7e9247d5" width="220" height="220"/>
  </g>
  <g id="uuid-d8005d84-45f5-4fa8-abf2-16993b2f7253" data-name="OBJECT">
    <g>
      <path class="uuid-7302523b-913d-417c-86a8-cad070b9604e" d="m93,136.87s-.08,6.48,7.54,6.48c0,0,2.36,3.59,1.93,12.53,0,0,3.23-18.83-9.47-19.01Z"/>
      <path class="uuid-7302523b-913d-417c-86a8-cad070b9604e" d="m79.08,105.6c11.3,6.04,18.39,20.06,18.39,20.06,3.33-2.89,7.24-2.89,7.24-2.89-6.04-19.97-30.05-27.68-31.1-28.96-1.05-1.29,1.64-3.27,3.62-11.68,1.98-8.41-1.75-27.16-1.75-27.16-1.4,31.19-8.32,33.64-9.72,37.49-1.4,3.85,2.01,7.1,13.31,13.14Z"/>
      <path class="uuid-7302523b-913d-417c-86a8-cad070b9604e" d="m94.41,127.67s-5.26-7.47-10.86-11.21c-5.61-3.74-14.25-8.06-16.12-6.07-1.87,1.99,2.22,12.61,5.37,16.35,3.15,3.74,16.12,4.44,19.5,8.06,0,0-.38-4.04,2.1-7.12Z"/>
      <path class="uuid-7302523b-913d-417c-86a8-cad070b9604e" d="m99.84,131.44c2.28,2.98,5.63,10.51,5.63,10.51-.59-6.57-5.63-10.51-5.63-10.51Z"/>
      <path class="uuid-7302523b-913d-417c-86a8-cad070b9604e" d="m110.61,162.53c-1.01-1.49.48-3.63,1.97-4.51,1.49-.88,3.15-1.62,2.58-2.76-.57-1.14-2.1-.35-3.63,1.22-1.53,1.58-1.53,1.27-1.53,1.27,0,0,0,.31-1.53-1.27-1.53-1.58-3.07-2.36-3.63-1.22-.57,1.14,1.09,1.88,2.58,2.76,1.49.88,2.98,3.02,1.97,4.51-1.01,1.49-4.67,0-4.67,0,0,0,2.52,2.63,5.28,2.5,2.76.13,5.28-2.5,5.28-2.5,0,0-3.66,1.49-4.67,0Z"/>
      <path class="uuid-7302523b-913d-417c-86a8-cad070b9604e" d="m117.53,155.88c-.44-8.94,1.93-12.53,1.93-12.53,7.62,0,7.54-6.48,7.54-6.48-12.7.18-9.47,19.01-9.47,19.01Z"/>
      <path class="uuid-7302523b-913d-417c-86a8-cad070b9604e" d="m140.92,105.6c11.3-6.04,14.72-9.29,13.31-13.14-1.4-3.86-8.32-6.31-9.72-37.49,0,0-3.74,18.75-1.75,27.16,1.99,8.41,4.67,10.39,3.62,11.68-1.05,1.28-25.06,8.99-31.1,28.96,0,0,3.92,0,7.24,2.89,0,0,7.09-14.02,18.4-20.06Z"/>
      <path class="uuid-7302523b-913d-417c-86a8-cad070b9604e" d="m136.45,116.46c-5.61,3.74-10.86,11.21-10.86,11.21,2.48,3.09,2.1,7.12,2.1,7.12,3.39-3.62,16.35-4.32,19.5-8.06,3.15-3.74,7.24-14.37,5.37-16.35-1.87-1.98-10.51,2.34-16.12,6.07Z"/>
      <path class="uuid-7302523b-913d-417c-86a8-cad070b9604e" d="m114.53,141.95s3.35-7.54,5.63-10.51c0,0-5.04,3.94-5.63,10.51Z"/>
    </g>
  </g>
</svg>